<svg xmlns="http://www.w3.org/2000/svg" viewBox="0 0 1275 405" role="img" aria-label="Bush Gums">
	<path d="M 396.778 21.375 C 393.695 23.231, 388.547 26.764, 385.337 29.225 C 353.062 53.973, 311.360 70.208, 245.723 83.579 C 218.765 89.070, 205.255 93.370, 189.049 101.615 C 159.118 116.842, 137.713 137.883, 106.763 182.500 C 77.041 225.348, 69.008 235.137, 38.323 265.907 C 25.485 278.781, 15.167 289.500, 15.394 289.727 C 15.924 290.257, 27.861 285.535, 35 281.972 C 42.420 278.268, 79.527 262.347, 95.021 256.220 C 156.138 232.050, 196.279 208.169, 223.617 179.714 C 237.024 165.759, 244.287 155.554, 258.735 130.368 C 271.987 107.270, 277.751 99.215, 287.197 90.593 C 296.157 82.415, 299.999 80.386, 323.282 71.532 C 333.852 67.512, 345.142 63.049, 348.371 61.613 L 354.243 59.003 347.832 66.251 C 344.305 70.238, 335.363 80.918, 327.960 89.985 C 320.557 99.052, 306.782 115.326, 297.350 126.151 C 275.082 151.703, 266.389 162.571, 259.717 173.199 C 244.609 197.264, 235.737 222.832, 226.997 267.500 C 215.183 327.879, 206.869 348.664, 182.008 379.982 C 176.995 386.297, 173.304 391.601, 173.806 391.769 C 174.308 391.936, 178.358 390.256, 182.807 388.036 C 187.256 385.816, 191.163 384, 191.489 384 C 193.122 384, 227.580 364.833, 236.416 359.009 C 266.069 339.465, 292.804 308.293, 309.496 273.801 C 317.538 257.184, 321.227 245.911, 324.022 229.415 C 326.309 215.917, 326.351 208.456, 324.394 163.406 C 322.877 128.479, 334.422 95.776, 357.988 68.250 C 361.873 63.712, 365.454 60, 365.945 60 C 367.126 60, 365.921 64.456, 359.994 82 C 357.300 89.975, 354.159 101, 353.014 106.500 C 350.588 118.152, 349.328 143.603, 350.748 152.234 C 351.590 157.348, 351.481 158.159, 349.744 159.732 C 346.708 162.479, 345 166.526, 345 170.972 C 345 173.669, 344.133 176.353, 342.431 178.924 C 337.188 186.847, 335.170 202.432, 338.009 213.073 C 341.492 226.127, 350.853 241.889, 357.888 246.544 C 360.063 247.984, 362.366 250.702, 363.404 253.055 C 366.350 259.732, 371.644 262.502, 381.431 262.490 C 391.516 262.477, 398.430 259.544, 406.606 251.811 C 417.862 241.166, 420.128 228.801, 412.440 219.988 C 411.714 219.156, 410.675 215.710, 410.131 212.330 C 408.006 199.140, 400.241 184.240, 390.971 175.569 C 385.786 170.719, 377.114 166.027, 373.305 166.010 C 371.910 166.004, 370.633 165.011, 369.805 163.287 C 368.659 160.906, 363.715 156.738, 360.936 155.812 C 359.074 155.191, 357.816 142.650, 358.496 131.500 C 359.360 117.347, 361.297 106.247, 364.817 95.275 L 367.633 86.500 369.453 92 C 371.869 99.298, 374.422 104.295, 379.306 111.293 C 383.686 117.567, 383.736 117.864, 383.846 138.500 C 383.897 147.973, 386.369 156.784, 391.003 164.005 C 395.552 171.093, 407.127 181.510, 412.805 183.626 C 415.387 184.587, 418.751 186.398, 420.281 187.649 C 425.881 192.228, 432.363 192.958, 440.474 189.924 C 450.588 186.140, 459.590 174.815, 460.764 164.398 C 461.386 158.880, 458.754 151.540, 455.354 149.312 C 454.007 148.430, 452.274 146.199, 451.504 144.355 C 449.092 138.582, 440.889 127.960, 435.587 123.743 C 427.176 117.053, 420.901 114.665, 409.500 113.814 C 390.627 112.405, 391.020 112.535, 386.376 106.161 C 372.638 87.303, 371.303 68.337, 382.316 48.500 C 385.387 42.969, 386.462 42.018, 396.074 36.329 C 409.734 28.245, 410.868 27.376, 411.609 24.420 C 412.465 21.010, 409.618 18, 405.536 18 C 403.728 18, 399.991 19.440, 396.778 21.375 M 267.442 87.007 C 262.459 88.538, 250.984 91.465, 241.942 93.512 C 222.138 97.996, 212.072 101.445, 197.504 108.741 C 165.146 124.945, 149.983 140.552, 104.951 204 C 89.001 226.473, 76.095 241.914, 62.533 254.750 L 51.703 264.999 67.102 257.612 C 75.571 253.548, 88.575 247.656, 96 244.517 C 124.990 232.263, 157.763 214.579, 179.709 199.350 C 208.055 179.679, 220.877 165.800, 241.003 133 C 253.195 113.130, 258.328 105.796, 265.271 98.328 C 268.697 94.642, 270.825 92.015, 270 92.490 C 264.586 95.606, 250.568 105.565, 232 119.485 C 220.175 128.351, 205.100 139.371, 198.500 143.974 C 176.881 159.055, 163.648 170.511, 138.833 195.631 C 125.450 209.178, 108.875 224.974, 102 230.733 C 88.772 241.813, 60 261.603, 60 259.620 C 60 259.373, 62.362 257.461, 65.250 255.372 C 86.714 239.843, 107.658 221.084, 138.500 189.764 C 164.736 163.121, 172.949 156.054, 197.500 138.995 C 205.750 133.262, 220.150 122.908, 229.500 115.986 C 246.562 103.354, 260.185 94.398, 269.500 89.688 C 274.857 86.979, 279.138 84.012, 277.500 84.144 C 276.950 84.188, 272.424 85.477, 267.442 87.007 M 305 130.746 C 262.026 182.889, 253.134 201.189, 237.385 269.898 C 224.378 326.640, 218.925 341.992, 203.918 364.114 L 200.110 369.728 203.305 368.099 C 241.608 348.561, 271.147 319.884, 295.245 278.841 C 304.356 263.322, 308.267 253.703, 311.849 238 C 314.427 226.694, 314.473 225.843, 314.558 187.500 C 314.606 166.050, 314.988 146.475, 315.407 144 C 316.135 139.705, 318.412 130.071, 319.595 126.282 C 320.077 124.737, 320.014 124.711, 319.116 126.089 C 317.071 129.229, 311.045 147.190, 306.003 165.177 C 299.016 190.100, 289.996 216.573, 283.850 230.195 C 281.044 236.413, 276.294 246.900, 273.293 253.500 C 270.292 260.100, 264.694 272.700, 260.851 281.500 C 244.618 318.680, 231.767 339.573, 214.274 357.229 C 204.399 367.196, 201.931 368.205, 210.449 358.793 C 225.796 341.837, 246.274 306.294, 259.015 274.500 C 260.558 270.650, 263.706 263.450, 266.011 258.500 C 287.583 212.179, 292.945 198.392, 301.987 166 C 309.096 140.534, 311.429 133.965, 318.084 120.670 C 321.372 114.102, 323.935 108.632, 323.781 108.514 C 323.626 108.396, 315.175 118.401, 305 130.746 M 390.200 120.200 C 389.540 120.860, 389 122.535, 389 123.923 L 389 126.446 392 123.161 C 393.650 121.355, 395 119.679, 395 119.438 C 395 118.488, 391.330 119.070, 390.200 120.200 M 402.395 122.025 C 395.304 124.210, 390.277 133.246, 391.308 141.956 C 392.004 147.827, 396.706 157.714, 401.701 163.811 C 404.889 167.701, 413.531 174.909, 415.086 174.975 C 415.408 174.989, 416.396 172.398, 417.280 169.218 C 420.140 158.931, 430.326 148.771, 439.202 147.352 C 441.291 147.018, 442.996 146.464, 442.990 146.122 C 442.967 144.608, 432.704 132.012, 429.507 129.573 C 421.131 123.184, 409.314 119.894, 402.395 122.025 M 903 133.691 C 880.390 137.476, 858.909 158.221, 853.429 181.565 C 851.251 190.844, 851.937 206.917, 854.908 216.206 C 859.466 230.457, 872.689 245.643, 886.464 252.450 C 909.884 264.022, 936.017 259.953, 954.267 241.894 C 966.262 230.025, 971 218.143, 971 199.936 L 971 190.970 941.250 191.235 L 911.500 191.500 911.210 199.729 L 910.920 207.958 931.210 208.229 L 951.500 208.500 951.193 211.500 C 949.932 223.842, 935.533 236.576, 920.010 239.076 C 895.040 243.097, 871 222.684, 871 197.460 C 871 156.746, 916.875 136.866, 944.536 165.593 L 949.573 170.824 957.379 164.662 L 965.186 158.500 957.231 150.937 C 944.338 138.680, 929.927 132.885, 913 133.154 C 908.875 133.219, 904.375 133.461, 903 133.691 M 750.704 137.630 C 750.317 138.017, 750 164.808, 750 197.167 L 750 256 759 256 L 768 256 768 231.943 C 768 217.917, 768.454 206.083, 769.088 203.564 C 772.504 189.997, 789.270 184.625, 800.005 193.658 C 806.251 198.914, 806.451 199.925, 807 229 L 807.500 255.500 816.129 255.787 C 823.294 256.026, 824.862 255.803, 825.372 254.473 C 825.710 253.592, 825.846 241.313, 825.674 227.186 C 825.300 196.463, 824.460 192.851, 815.418 183.085 C 807.952 175.021, 800.354 171.652, 789.500 171.593 C 781.587 171.550, 779.953 172.037, 768.771 177.778 C 768.370 177.984, 767.920 169.006, 767.771 157.826 L 767.500 137.500 759.454 137.213 C 755.028 137.055, 751.091 137.242, 750.704 137.630 M 497 196.944 L 497 256 525.318 256 C 556.558 256, 560.336 255.468, 569.247 249.809 C 588.465 237.607, 589.332 207.782, 570.817 195.784 L 565.948 192.629 569.921 188.565 C 584.255 173.900, 579.319 150.290, 560 141.113 C 554.523 138.511, 554.382 138.499, 525.750 138.194 L 497 137.887 497 196.944 M 437.008 154.765 C 429.571 158.427, 423.345 167.009, 422.261 175.093 C 421.163 183.274, 430.855 187.693, 439.790 183.088 C 451.130 177.242, 457.757 161.666, 451.545 155.455 C 448.553 152.462, 442.289 152.165, 437.008 154.765 M 516 171.107 L 516 186.214 531.250 185.838 C 543.939 185.526, 547.170 185.130, 550.487 183.481 C 561.695 177.911, 561.759 162.974, 550.595 157.904 C 547.185 156.355, 543.951 156.040, 531.250 156.022 L 516 156 516 171.107 M 439.500 158.388 C 436.009 159.911, 429.340 166.977, 427.955 170.617 C 424.210 180.468, 430.928 184.253, 440.615 177.750 C 453.643 169.004, 452.700 152.626, 439.500 158.388 M 353.595 165.168 C 350.722 169.270, 351.670 169.869, 357.481 167.620 C 363.633 165.241, 364.096 163.649, 358.768 163.195 C 355.972 162.957, 354.842 163.388, 353.595 165.168 M 701.355 171.039 C 692.196 172.852, 682.301 179.912, 679.381 186.718 C 677.742 190.538, 677.569 199.725, 679.061 203.685 C 681.786 210.911, 690.051 216.297, 704.762 220.433 C 709.737 221.832, 715.088 223.462, 716.654 224.055 C 727.111 228.017, 726.063 238.021, 714.875 241.034 C 706.594 243.264, 698.670 240.838, 691.427 233.857 L 687.354 229.931 680.677 235.085 C 677.005 237.920, 674 240.822, 674 241.535 C 674 243.761, 683.207 251.140, 690 254.358 C 699.024 258.633, 712.371 259.297, 723.192 256.010 C 739.510 251.054, 747.089 235.129, 739.912 220.876 C 736.210 213.523, 729.269 209.424, 713.055 205.015 C 706.963 203.358, 701.115 201.464, 700.060 200.805 C 696.941 198.858, 695.763 195.268, 697.234 192.198 C 699.150 188.203, 702.591 186.877, 710.111 187.235 C 716.609 187.544, 718.287 188.279, 726.529 194.421 C 727.746 195.328, 740 185.749, 740 183.891 C 740 182.303, 734.410 177.813, 728.953 175.018 C 720.355 170.613, 710.608 169.208, 701.355 171.039 M 1210.465 171.962 C 1198.495 175.887, 1192 184.170, 1192 195.510 C 1192 203.445, 1193.374 206.399, 1199.628 211.903 C 1204.290 216.008, 1207.802 217.400, 1226.398 222.519 C 1232.777 224.274, 1238 228.473, 1238 231.846 C 1238 232.946, 1236.846 235.218, 1235.436 236.894 C 1229.074 244.455, 1214.440 243.282, 1205.666 234.508 L 1201.218 230.060 1194.609 235.064 C 1190.974 237.816, 1188 240.486, 1188 240.999 C 1188 242.745, 1194.043 248.819, 1198.778 251.832 C 1206.324 256.634, 1213.659 258.282, 1225.380 257.808 C 1245.204 257.005, 1255.923 248.042, 1255.978 232.218 C 1256.030 217.369, 1249.266 211.048, 1226.802 204.953 C 1214.031 201.487, 1211.306 200.069, 1210.388 196.410 C 1208.886 190.424, 1216.187 185.205, 1224.476 186.342 C 1229.707 187.059, 1235.661 189.859, 1238.405 192.894 C 1241.087 195.860, 1241.767 195.617, 1248.458 189.313 L 1254.416 183.700 1249.678 179.411 C 1240.402 171.012, 1223.280 167.760, 1210.465 171.962 M 1086 172.521 C 1079.077 174.432, 1070.415 180.292, 1066.815 185.500 C 1061.784 192.777, 1061 198.610, 1061 228.749 L 1061 256.078 1069.750 255.789 L 1078.500 255.500 1079 228 C 1079.540 198.279, 1079.521 198.384, 1085.420 193.205 C 1091.678 187.709, 1101.335 187.722, 1107.612 193.233 C 1113.474 198.380, 1113.460 198.302, 1114 228 L 1114.500 255.500 1123.250 255.789 L 1132 256.078 1132 230.405 C 1132 201.415, 1132.461 198.623, 1138.091 193.536 C 1147.446 185.085, 1162.553 189.526, 1165.940 201.723 C 1166.544 203.897, 1166.991 216.217, 1166.994 230.750 L 1167 256 1175.417 256 C 1181.225 256, 1183.983 255.613, 1184.317 254.750 C 1184.583 254.063, 1184.568 240.900, 1184.283 225.500 C 1183.720 195.058, 1182.959 190.698, 1176.904 183.219 C 1165.761 169.454, 1139.929 167.343, 1126.536 179.103 C 1122.447 182.693, 1122.036 182.691, 1118.570 179.073 C 1112.190 172.414, 1097.266 169.412, 1086 172.521 M 359.315 173.046 C 352.391 175.171, 346.740 183.747, 345.510 194 C 344.174 205.133, 350.711 224.206, 359.374 234.451 L 362.715 238.403 364.503 234.635 C 369.260 224.611, 383.060 215.870, 395.241 215.165 C 401.936 214.778, 401.978 214.757, 401.401 212.138 C 398.041 196.873, 387.800 181.475, 377.156 175.681 C 371.542 172.626, 364.213 171.544, 359.315 173.046 M 592.621 174.545 C 591.239 178.146, 591.962 223.434, 593.495 229.320 C 596.692 241.594, 602.812 249.120, 613.849 254.349 C 619.906 257.219, 621.348 257.494, 630 257.438 C 642.156 257.358, 648.924 254.892, 656.058 247.944 C 665.034 239.200, 666.415 234.728, 667 212.500 C 667.275 202.050, 667.372 188.870, 667.215 183.212 L 666.929 172.923 658.215 173.212 L 649.500 173.500 649 200.076 L 648.500 226.652 645.749 230.806 C 639.649 240.017, 625.014 242.001, 617.155 234.683 C 611.756 229.656, 611.536 228.419, 611 200 L 610.500 173.500 601.871 173.213 C 594.669 172.973, 593.140 173.193, 592.621 174.545 M 979.439 174.299 C 979.148 175.058, 979.042 188.239, 979.205 203.589 L 979.500 231.500 982.394 237.394 C 990.151 253.193, 1008.199 261.135, 1026 256.584 C 1037.132 253.738, 1044.101 247.896, 1049.362 237 L 1052.500 230.500 1052.500 202 L 1052.500 173.500 1044 173.500 L 1035.500 173.500 1035 199.500 L 1034.500 225.500 1031.707 230.252 C 1024.547 242.432, 1005.944 242.009, 998.664 229.500 C 997.894 228.177, 997.331 218.360, 997 200.500 L 996.500 173.500 988.234 173.209 C 981.925 172.987, 979.843 173.245, 979.439 174.299 M 516 220.500 L 516 238 532.250 237.994 C 551.223 237.988, 554.780 237.220, 559.993 232.007 C 568.652 223.348, 565.508 209.451, 553.782 204.553 C 550.915 203.355, 546.168 203, 533.032 203 L 516 203 516 220.500 M 386.028 224.072 C 365.700 233.293, 362.710 256, 381.825 256 C 400.828 256, 418.813 230.643, 404.909 223.453 C 400.818 221.337, 391.375 221.647, 386.028 224.072 M 392.332 226.959 C 381.663 229.500, 371.451 240.797, 373.930 247.316 C 375.074 250.326, 376.805 251.002, 383.332 250.991 C 390.384 250.978, 398.036 246.589, 402.055 240.253 C 406.425 233.362, 405.974 229.081, 400.665 227.063 C 397.560 225.882, 396.890 225.874, 392.332 226.959" stroke="none" fill="#1f4a2c" fill-rule="evenodd"/>
</svg>